<svg width="38" height="41" viewBox="0 0 38 41" fill="none" xmlns="http://www.w3.org/2000/svg">
<path d="M24.8708 25.7592L13.7332 29.0516C14.2872 30.1221 15.1427 30.9905 16.1699 31.5626V37.5091H14.2727C13.5225 37.5091 12.918 38.1299 12.918 38.8937C12.918 39.6574 13.524 40.2782 14.2727 40.2782H25.4522C26.2024 40.2782 26.8069 39.6574 26.8069 38.8937C26.8069 38.1299 26.2009 37.5091 25.4522 37.5091H23.555V30.0248C23.555 30.0263 24.9718 28.6137 24.8708 25.7592ZM20.8442 37.5091H18.8807L18.8634 32.3161C19.7882 32.2925 20.8442 31.9548 20.8442 31.9548V37.5091ZM3.9488 15.494L8.21774 13.2749L13.3566 26.2811L8.64766 27.673C8.64766 27.673 7.2771 28.2023 6.74763 26.1705L4.47106 27.0877C4.47106 27.0877 3.35585 27.5742 2.71241 26.3062L0.526726 20.6295C0.252614 19.9188 0.594533 19.1152 1.28991 18.8336L3.56216 17.9165C3.5636 17.915 2.6648 16.1619 3.9488 15.494ZM23.0876 3.20582L28.3924 0.280491C29.6288 -0.40071 30.2953 0.991181 30.2953 0.991181L37.5607 19.8186C37.9762 21.3977 36.6403 21.6661 36.6403 21.6661L30.8046 23.2187C29.4081 23.5902 28.9276 21.6764 28.9276 21.6764L15.9737 25.507L10.6444 12.0142L22.7673 5.70945C22.7673 5.70798 21.7646 3.93568 23.0876 3.20582Z" fill="#B85A60"/>
</svg>
