<svg width="37" height="41" viewBox="0 0 37 41" fill="none" xmlns="http://www.w3.org/2000/svg">
<path d="M9.81405 11.8749C11.3505 11.8749 12.5961 10.6343 12.5961 9.10385C12.5961 7.57342 11.3505 6.33276 9.81405 6.33276C8.27756 6.33276 7.03198 7.57342 7.03198 9.10385C7.03198 10.6343 8.27756 11.8749 9.81405 11.8749Z" fill="#2555BB"/>
<path d="M27.2011 15.3391C25.5416 15.3411 23.9506 15.9987 22.7771 17.1675C21.6037 18.3364 20.9435 19.9211 20.9415 21.5741V31.6192C20.9415 32.9972 20.3919 34.3188 19.4137 35.2932C18.4354 36.2676 17.1086 36.815 15.7251 36.815C14.3417 36.815 13.0149 36.2676 12.0366 35.2932C11.0583 34.3188 10.5088 32.9972 10.5088 31.6192V28.2711L13.9863 27.1162V25.7307H5.64014V27.1162L9.11772 28.2711V31.6192C9.11772 33.3647 9.81385 35.0387 11.053 36.2729C12.2921 37.5072 13.9727 38.2006 15.7251 38.2006C17.4775 38.2006 19.1581 37.5072 20.3973 36.2729C21.6364 35.0387 22.3325 33.3647 22.3325 31.6192V21.5741C22.3325 20.2879 22.8455 19.0544 23.7585 18.145C24.6716 17.2356 25.9099 16.7247 27.2011 16.7247C28.4924 16.7247 29.7307 17.2356 30.6438 18.145C31.5568 19.0544 32.0698 20.2879 32.0698 21.5741V26.4858C32.5297 26.4027 33.0009 26.4027 33.4608 26.4858V21.5741C33.4588 19.9211 32.7986 18.3364 31.6251 17.1675C30.4517 15.9987 28.8607 15.3411 27.2011 15.3391Z" fill="#2555BB"/>
<path d="M33.4612 26.4856V31.2726H36.9388V30.5799C36.9378 29.5983 36.5881 28.6488 35.9516 27.8994C35.3151 27.15 34.4329 26.6492 33.4612 26.4856Z" fill="#2555BB"/>
<path d="M28.5923 36.1211C28.5923 37.2235 29.0319 38.2807 29.8146 39.0603C30.5972 39.8398 31.6586 40.2777 32.7654 40.2777C33.8722 40.2777 34.9336 39.8398 35.7162 39.0603C36.4988 38.2807 36.9385 37.2235 36.9385 36.1211V32.6572H28.5923V36.1211Z" fill="#2555BB"/>
<path d="M28.5923 30.5799V31.2726H32.0699V26.4856C31.0982 26.6492 30.216 27.15 29.5795 27.8994C28.943 28.6488 28.5933 29.5983 28.5923 30.5799Z" fill="#2555BB"/>
<path d="M13.9863 22.959H5.64014V24.3445H13.9863V22.959Z" fill="#2555BB"/>
<path d="M5.64059 20.1881V21.5736H9.11817V13.198C8.08644 13.0243 7.15788 12.4709 6.51649 11.6474C5.8751 10.8239 5.5677 9.79048 5.65521 8.7519C5.74271 7.71331 6.21873 6.74537 6.98894 6.03989C7.75914 5.33441 8.76733 4.94287 9.81369 4.94287C10.8601 4.94287 11.8682 5.33441 12.6384 6.03989C13.4086 6.74537 13.8847 7.71331 13.9722 8.7519C14.0597 9.79048 13.7523 10.8239 13.1109 11.6474C12.4695 12.4709 11.5409 13.0243 10.5092 13.198V21.5736H13.9868V19.4184C13.9776 18.7863 14.1094 18.1602 14.3729 17.5851C14.6363 17.01 15.0247 16.5004 15.51 16.0931C16.9609 14.9207 18.0116 13.3294 18.5175 11.538C19.0235 9.74654 18.9599 7.843 18.3355 6.08906C17.711 4.33512 16.5564 2.81692 15.0305 1.74321C13.5045 0.669505 11.682 0.0930176 9.81369 0.0930176C7.94536 0.0930176 6.12291 0.669505 4.59692 1.74321C3.07093 2.81692 1.91634 4.33512 1.29191 6.08906C0.667483 7.843 0.603874 9.74654 1.10983 11.538C1.61579 13.3294 2.66647 14.9207 4.11741 16.0931C4.6027 16.5004 4.99109 17.01 5.25451 17.5851C5.51793 18.1602 5.6498 18.7863 5.64059 19.4184V20.1881Z" fill="#2555BB"/>
</svg>
