<svg width="41" height="41" viewBox="0 0 41 41" fill="none" xmlns="http://www.w3.org/2000/svg">
<path d="M20.1852 8.51855C13.866 8.51855 8.72583 13.7545 8.72583 20.1912C8.72583 26.628 13.8665 31.8634 20.1852 31.8634C26.5039 31.8634 31.6446 26.628 31.6446 20.1912C31.6446 13.7545 26.5039 8.51855 20.1852 8.51855ZM26.3532 20.9884L19.4021 20.9874L19.4026 10.7985H20.9683L20.9678 19.393L26.3532 19.3936V20.9884Z" fill="#0F642F"/>
<path d="M40.2633 19.5037C40.2603 19.4295 40.2543 19.3527 40.2513 19.2775C40.2422 19.1153 40.2322 18.9521 40.2196 18.7848C40.2126 18.6947 40.2036 18.6036 40.1955 18.5121C40.1805 18.3529 40.1639 18.1917 40.1453 18.028C40.1348 17.9318 40.1227 17.8351 40.1106 17.7374C40.1016 17.6709 40.0921 17.6018 40.0825 17.5343L33.8553 15.6651L33.8558 15.6646H33.8553L37.8236 10.4154C36.9782 8.83333 35.955 7.3935 34.7755 6.12354L28.6347 8.34879L28.8135 1.72524C27.2468 0.965412 25.5836 0.417415 23.8582 0.0930176L20.1857 5.54996L16.5228 0.104274C16.2867 0.148277 16.0511 0.194328 15.8171 0.247541C15.6659 0.281312 15.5132 0.310988 15.363 0.34834C14.8968 0.465 14.4352 0.59394 13.9806 0.743859C13.963 0.749999 13.9454 0.757163 13.9278 0.763303C13.4888 0.909128 13.0563 1.07235 12.6294 1.24939C12.4817 1.31028 12.3375 1.37884 12.1918 1.44331C11.9789 1.53797 11.7684 1.63774 11.5589 1.73957L11.7377 8.34776H11.7372V8.34827L5.93547 6.24532L5.61098 6.12763C5.45727 6.2929 5.30557 6.45919 5.15738 6.63009C5.04687 6.75698 4.93335 6.88081 4.82636 7.01128C4.55008 7.34592 4.28436 7.69129 4.02918 8.04588C3.98899 8.10165 3.9473 8.1564 3.90762 8.21319C3.6439 8.58722 3.39274 8.97251 3.15263 9.36649C3.06523 9.51027 2.98486 9.65917 2.90047 9.8055C2.78293 10.0091 2.66991 10.2169 2.55839 10.4251L6.51716 15.6641L6.51665 15.6646L0.288419 17.5343C0.279377 17.6003 0.269331 17.6678 0.261294 17.7333C0.248736 17.8351 0.23668 17.9359 0.225127 18.0352C0.206541 18.1953 0.190969 18.3534 0.176905 18.509C0.167863 18.6031 0.159323 18.6978 0.151789 18.7894C0.138728 18.9541 0.129687 19.1153 0.120645 19.276C0.116627 19.3527 0.111101 19.4305 0.108087 19.5062C0.0985429 19.739 0.0930176 19.9683 0.0930176 20.1919C0.0930176 20.4155 0.0985429 20.6437 0.108087 20.8765C0.111101 20.9512 0.117129 21.0289 0.120645 21.1047C0.129185 21.2653 0.138728 21.4275 0.151789 21.5928C0.159323 21.6844 0.167863 21.7775 0.176402 21.8712C0.19097 22.0267 0.206541 22.1843 0.224625 22.3455C0.236178 22.4463 0.248234 22.5471 0.261294 22.6489C0.269331 22.7134 0.279377 22.7809 0.288419 22.8464L6.51565 24.716L2.55739 29.954C2.67443 30.1745 2.79297 30.392 2.91705 30.6058C2.9934 30.7389 3.06674 30.8745 3.1461 31.0055C3.40128 31.424 3.6665 31.8338 3.9478 32.2309C3.95333 32.2386 3.95885 32.2442 3.96438 32.2519C4.24116 32.6413 4.5325 33.0158 4.83389 33.3811C4.92933 33.4978 5.0313 33.6073 5.12875 33.7209C5.28598 33.9025 5.44772 34.079 5.61098 34.2545L11.7367 32.0344H11.7377L11.5589 38.6431C11.785 38.7521 12.0105 38.8606 12.2401 38.9609C12.3651 39.0156 12.4882 39.0755 12.6143 39.1282C13.5079 39.4976 14.4282 39.8005 15.3695 40.0354C15.5132 40.0717 15.6583 40.0998 15.803 40.1316C16.0406 40.1853 16.2802 40.2324 16.5203 40.2769L19.4885 35.8653L20.1857 34.8302L21.7494 37.1552L23.8501 40.2784C24.0857 40.2349 24.3203 40.1889 24.5529 40.1362C24.7041 40.1024 24.8568 40.0732 25.008 40.0359C25.4756 39.9187 25.9393 39.7887 26.3964 39.6383C26.3979 39.6373 26.3994 39.6373 26.4004 39.6363C26.856 39.4864 27.3041 39.3165 27.7476 39.1328C27.8867 39.076 28.0229 39.0105 28.161 38.9491C28.3805 38.8529 28.597 38.7485 28.8125 38.6436L28.6347 32.036L34.761 34.2561C34.9207 34.0837 35.0799 33.9102 35.2331 33.7321C35.3346 33.615 35.4396 33.5014 35.5386 33.3806C35.8364 33.0194 36.1243 32.6474 36.3985 32.2621C36.4066 32.2519 36.4151 32.2427 36.4226 32.2309C36.7039 31.8364 36.9686 31.4266 37.2233 31.0075C37.3052 30.8734 37.38 30.7348 37.4589 30.5987C37.582 30.3868 37.6995 30.1719 37.8151 29.9545L33.8548 24.7155L40.082 22.8459C40.0911 22.7804 40.1006 22.7128 40.1091 22.6474C40.1222 22.5476 40.1343 22.4478 40.1453 22.3491C40.1634 22.1874 40.1795 22.0293 40.1945 21.8727C40.2031 21.7791 40.2121 21.687 40.2191 21.5954C40.2317 21.4291 40.2417 21.2669 40.2508 21.1052C40.2548 21.0305 40.2608 20.9537 40.2633 20.879C40.2734 20.6457 40.2784 20.416 40.2784 20.1913C40.2784 19.9667 40.2729 19.737 40.2633 19.5037ZM20.1857 33.4584C13.0036 33.4584 7.16062 27.5072 7.16062 20.1913C7.16062 12.8755 13.0036 6.92328 20.1857 6.92328C27.3679 6.92328 33.2113 12.8755 33.2113 20.1913C33.2113 27.5077 27.3679 33.4584 20.1857 33.4584Z" fill="#0F642F"/>
</svg>
