<svg width="42" height="22" viewBox="0 0 42 22" fill="none" xmlns="http://www.w3.org/2000/svg">
<path d="M20.8727 0.658936C20.6001 0.659165 20.2818 0.85737 20.1614 1.1018L18.5989 4.27424L0.608672 4.19755C-0.0232207 4.18695 -0.0270253 5.13873 0.604961 5.13269L18.1395 5.20759L15.6053 10.3535H0.620489C-0.0117995 10.3446 -0.0117995 11.2975 0.620489 11.2886H15.1441L12.6118 16.4317H0.606785C-0.0255038 16.4229 -0.0255038 17.3758 0.606785 17.3668H12.1506L10.4658 20.7887C10.3454 21.033 10.4686 21.2312 10.7406 21.2316H30.8248C31.0974 21.2313 31.4158 21.0331 31.5362 20.7887L41.2317 1.1018C41.3521 0.857458 41.2289 0.659271 40.9568 0.658936H20.8727Z" fill="#B89500"/>
</svg>
