<svg width="288" height="181" viewBox="0 0 288 181" fill="none" xmlns="http://www.w3.org/2000/svg">
<path d="M6.49982 146.5H18.7998V150.7H1.2998V128.1H18.3998V132.3H6.49982V146.5ZM6.19983 137.2H16.9998V141.3H6.09982V137.2H6.19983Z" fill="#21D0ED"/>
<path d="M60.4997 150.7H55.1997V128.1H72.2997V132.3H60.4997V150.7ZM60.0997 138.3H70.9997V142.5H60.1997V138.3H60.0997Z" fill="#21D0ED"/>
<path d="M113.4 150.7H108.1V128.1H125.2V132.3H113.4V150.7ZM113 138.3H123.8V142.5H113V138.3Z" fill="#21D0ED"/>
<path d="M166.3 146.5H178.6V150.7H161.1V128.1H178.2V132.3H166.3V146.5ZM165.9 137.2H176.8V141.3H165.9V137.2Z" fill="#21D0ED"/>
<path d="M225.8 151.1C224.1 151.1 222.4 150.8 220.9 150.2C219.4 149.6 218.1 148.8 217 147.8C215.9 146.7 215 145.5 214.4 144.1C213.8 142.7 213.5 141.1 213.5 139.4C213.5 137.7 213.8 136.1 214.4 134.7C215 133.3 215.9 132 217 131C218.1 129.9 219.4 129.1 220.9 128.6C222.4 128 224 127.7 225.8 127.7C227.8 127.7 229.5 128 231.1 128.7C232.7 129.4 234 130.4 235.1 131.7L231.7 134.8C230.9 133.9 230.1 133.3 229.1 132.8C228.1 132.3 227.1 132.1 226 132.1C224.9 132.1 224 132.3 223.1 132.6C222.2 133 221.5 133.5 220.8 134.1C220.2 134.7 219.7 135.5 219.3 136.4C218.9 137.3 218.8 138.3 218.8 139.3C218.8 140.4 219 141.4 219.3 142.2C219.7 143.1 220.2 143.8 220.8 144.5C221.4 145.1 222.2 145.6 223.1 146C224 146.4 225 146.5 226 146.5C227.1 146.5 228.2 146.3 229.1 145.8C230.1 145.3 230.9 144.7 231.7 143.8L235.1 146.9C234 148.2 232.7 149.2 231.1 149.9C229.6 150.7 227.8 151.1 225.8 151.1Z" fill="#21D0ED"/>
<path d="M275.5 150.7V132.4H268.3V128.1H288V132.4H280.8V150.7H275.5Z" fill="#21D0ED"/>
<path d="M2.50009 180.1H1.1001V166.8H10.2001V168H2.50009V180.1ZM2.30008 173.2H9.40009V174.4H2.30008V173.2Z" fill="#21D0ED"/>
<path d="M20.4999 180.2C19.4999 180.2 18.6999 180 17.8999 179.5C17.0999 179.1 16.4999 178.5 16.0999 177.7C15.6999 176.9 15.3999 176 15.3999 175.1C15.3999 174.1 15.5999 173.2 16.0999 172.5C16.4999 171.7 17.0999 171.1 17.8999 170.7C18.6999 170.3 19.4999 170.1 20.4999 170.1C21.4999 170.1 22.3999 170.3 23.0999 170.8C23.8999 171.2 24.4999 171.8 24.8999 172.6C25.2999 173.4 25.5999 174.2 25.5999 175.2C25.5999 176.2 25.3999 177.1 24.8999 177.8C24.4999 178.6 23.8999 179.2 23.0999 179.6C22.3999 180 21.4999 180.2 20.4999 180.2ZM20.4999 179C21.1999 179 21.8999 178.8 22.3999 178.5C22.9999 178.2 23.3999 177.7 23.6999 177.1C23.9999 176.5 24.1999 175.8 24.1999 175.1C24.1999 174.3 23.9999 173.6 23.6999 173C23.3999 172.4 22.8999 172 22.3999 171.6C21.7999 171.3 21.1999 171.1 20.4999 171.1C19.7999 171.1 19.1999 171.3 18.5999 171.6C17.9999 171.9 17.5999 172.4 17.2999 173C16.9999 173.6 16.7999 174.3 16.7999 175.1C16.7999 175.9 16.9999 176.6 17.2999 177.1C17.5999 177.7 18.0999 178.1 18.5999 178.5C19.1999 178.8 19.7999 179 20.4999 179Z" fill="#21D0ED"/>
<path d="M32.2002 180.1V170.1H33.5002V172.8L33.4002 172.3C33.7002 171.5 34.1002 171 34.8002 170.6C35.5002 170.2 36.3002 170 37.3002 170V171.3C37.2002 171.3 37.2002 171.3 37.1002 171.3C37.0002 171.3 37.0002 171.3 36.9002 171.3C35.8002 171.3 35.0002 171.6 34.4002 172.3C33.8002 173 33.5002 173.9 33.5002 175V180.1H32.2002Z" fill="#21D0ED"/>
<path d="M55.3001 180.1V168H50.6001V166.8H61.4001V168H56.7001V180.1H55.3001Z" fill="#21D0ED"/>
<path d="M70.4002 180.2C69.4002 180.2 68.4002 180 67.7002 179.5C66.9002 179.1 66.3002 178.5 65.9002 177.7C65.5002 176.9 65.2002 176.1 65.2002 175.1C65.2002 174.1 65.4002 173.2 65.8002 172.5C66.2002 171.7 66.8002 171.1 67.6002 170.7C68.3002 170.3 69.2002 170 70.1002 170C71.0002 170 71.9002 170.2 72.6002 170.6C73.3002 171 73.9002 171.6 74.3002 172.4C74.7002 173.2 74.9002 174.1 74.9002 175.1C74.9002 175.2 74.9002 175.2 74.9002 175.3C74.9002 175.4 74.9002 175.4 74.9002 175.5H66.2002V174.5H74.2002L73.7002 174.9C73.7002 174.2 73.5002 173.5 73.2002 173C72.9002 172.4 72.5002 172 71.9002 171.7C71.4002 171.4 70.7002 171.2 70.1002 171.2C69.4002 171.2 68.8002 171.4 68.3002 171.7C67.8002 172 67.3002 172.5 67.0002 173C66.7002 173.6 66.5002 174.2 66.5002 175V175.2C66.5002 176 66.7002 176.6 67.0002 177.2C67.3002 177.8 67.8002 178.2 68.4002 178.6C69.0002 178.9 69.7002 179.1 70.5002 179.1C71.1002 179.1 71.7002 179 72.2002 178.8C72.7002 178.6 73.2002 178.3 73.6002 177.8L74.4002 178.7C74.0002 179.2 73.4002 179.6 72.7002 179.9C72.0002 180 71.2002 180.2 70.4002 180.2Z" fill="#21D0ED"/>
<path d="M85.5999 180.2C84.5999 180.2 83.6999 180 82.8999 179.5C82.0999 179.1 81.4999 178.5 81.0999 177.7C80.6999 176.9 80.3999 176.1 80.3999 175.1C80.3999 174.1 80.5999 173.2 81.0999 172.5C81.4999 171.7 82.1999 171.1 82.8999 170.7C83.6999 170.3 84.5999 170.1 85.5999 170.1C86.4999 170.1 87.1999 170.3 87.8999 170.6C88.5999 170.9 89.0999 171.4 89.4999 172.1L88.4999 172.8C88.1999 172.3 87.6999 171.9 87.1999 171.7C86.6999 171.5 86.0999 171.3 85.4999 171.3C84.7999 171.3 84.0999 171.5 83.5999 171.8C82.9999 172.1 82.5999 172.6 82.1999 173.2C81.8999 173.8 81.6999 174.5 81.6999 175.3C81.6999 176.1 81.8999 176.8 82.1999 177.4C82.4999 178 82.9999 178.4 83.5999 178.8C84.1999 179.1 84.7999 179.3 85.4999 179.3C86.0999 179.3 86.6999 179.2 87.1999 178.9C87.6999 178.7 88.0999 178.3 88.4999 177.8L89.4999 178.5C89.0999 179.1 88.5999 179.6 87.8999 180C87.2999 180 86.4999 180.2 85.5999 180.2Z" fill="#21D0ED"/>
<path d="M101.1 170C101.9 170 102.6 170.2 103.2 170.5C103.8 170.8 104.3 171.3 104.6 171.9C104.9 172.5 105.1 173.3 105.1 174.3V180.1H103.7V174.4C103.7 173.3 103.4 172.5 102.9 172C102.4 171.5 101.6 171.2 100.7 171.2C100 171.2 99.4 171.3 98.8 171.6C98.3 171.9 97.9 172.3 97.6 172.8C97.3 173.3 97.2 174 97.2 174.8V180.1H96V166H97.4V172.9L97.1 172.4C97.4 171.7 97.9 171.1 98.6 170.7C99.3 170.2 100.2 170 101.1 170Z" fill="#21D0ED"/>
<path d="M117.8 170C118.6 170 119.3 170.2 119.9 170.5C120.5 170.8 121 171.3 121.3 171.9C121.6 172.5 121.8 173.3 121.8 174.3V180.1H120.4V174.4C120.4 173.3 120.1 172.5 119.6 172C119.1 171.5 118.3 171.2 117.4 171.2C116.7 171.2 116.1 171.3 115.5 171.6C115 171.9 114.6 172.3 114.3 172.8C114 173.3 113.9 174 113.9 174.8V180.1H112.5V170.1H113.8V172.8L113.6 172.3C113.9 171.6 114.4 171 115.1 170.6C116 170.2 116.9 170 117.8 170Z" fill="#21D0ED"/>
<path d="M130.1 167.9C129.8 167.9 129.6 167.8 129.4 167.6C129.2 167.4 129.1 167.2 129.1 166.9C129.1 166.6 129.2 166.4 129.4 166.2C129.6 166 129.8 165.9 130.1 165.9C130.4 165.9 130.6 166 130.8 166.2C131 166.4 131.1 166.6 131.1 166.9C131.1 167.2 131 167.4 130.8 167.6C130.6 167.8 130.4 167.9 130.1 167.9ZM129.4 180.1V170.1H130.8V180.1H129.4Z" fill="#21D0ED"/>
<path d="M142.5 180.2C141.5 180.2 140.6 180 139.8 179.5C139 179.1 138.4 178.5 138 177.7C137.6 176.9 137.3 176.1 137.3 175.1C137.3 174.1 137.5 173.2 138 172.5C138.4 171.7 139.1 171.1 139.8 170.7C140.6 170.3 141.5 170.1 142.5 170.1C143.4 170.1 144.1 170.3 144.8 170.6C145.5 170.9 146 171.4 146.4 172.1L145.4 172.8C145.1 172.3 144.6 171.9 144.1 171.7C143.6 171.5 143 171.3 142.4 171.3C141.7 171.3 141 171.5 140.5 171.8C139.9 172.1 139.5 172.6 139.1 173.2C138.8 173.8 138.6 174.5 138.6 175.3C138.6 176.1 138.8 176.8 139.1 177.4C139.4 178 139.9 178.4 140.5 178.8C141.1 179.1 141.7 179.3 142.4 179.3C143 179.3 143.6 179.2 144.1 178.9C144.6 178.7 145 178.3 145.4 177.8L146.4 178.5C146 179.1 145.5 179.6 144.8 180C144.1 180 143.4 180.2 142.5 180.2Z" fill="#21D0ED"/>
<path d="M155.7 180.2C154.9 180.2 154.3 180.1 153.7 179.8C153.1 179.6 152.7 179.2 152.4 178.8C152.1 178.4 152 177.9 152 177.3C152 176.8 152.1 176.3 152.4 175.9C152.6 175.5 153.1 175.1 153.6 174.9C154.2 174.6 154.9 174.5 155.9 174.5H159.3V175.5H156C155 175.5 154.4 175.7 154 176C153.6 176.3 153.4 176.8 153.4 177.3C153.4 177.9 153.6 178.3 154.1 178.7C154.5 179 155.2 179.2 156 179.2C156.8 179.2 157.4 179 158 178.7C158.6 178.4 159 177.8 159.2 177.2L159.5 178.1C159.2 178.8 158.8 179.3 158.2 179.7C157.5 180 156.7 180.2 155.7 180.2ZM159.2 180.1V177.9L159.1 177.5V173.8C159.1 172.9 158.9 172.3 158.4 171.8C157.9 171.3 157.2 171.1 156.3 171.1C155.7 171.1 155 171.2 154.5 171.4C153.9 171.6 153.4 171.9 153 172.3L152.4 171.3C152.9 170.9 153.5 170.5 154.2 170.3C154.9 170.1 155.7 169.9 156.4 169.9C157.7 169.9 158.7 170.2 159.4 170.9C160.1 171.5 160.5 172.5 160.5 173.8V180H159.2V180.1Z" fill="#21D0ED"/>
<path d="M167.9 180.1V166H169.3V180.1H167.9Z" fill="#21D0ED"/>
<path d="M189.7 180.2C188.7 180.2 187.8 180 186.9 179.7C186 179.4 185.3 179 184.8 178.5L185.4 177.4C185.9 177.9 186.5 178.2 187.3 178.6C188.1 178.9 188.9 179.1 189.8 179.1C190.6 179.1 191.3 179 191.8 178.8C192.3 178.6 192.7 178.3 193 178C193.2 177.6 193.4 177.3 193.4 176.8C193.4 176.3 193.3 175.9 193 175.5C192.7 175.2 192.3 174.9 191.8 174.7C191.3 174.5 190.8 174.4 190.2 174.2C189.6 174.1 189 173.9 188.4 173.8C187.8 173.6 187.3 173.4 186.8 173.2C186.3 172.9 185.9 172.6 185.6 172.1C185.3 171.7 185.2 171.1 185.2 170.4C185.2 169.7 185.4 169.1 185.7 168.6C186 168 186.6 167.6 187.3 167.3C188 167 189 166.8 190.1 166.8C190.8 166.8 191.6 166.9 192.3 167.1C193 167.3 193.7 167.6 194.2 168L193.7 169.1C193.1 168.7 192.5 168.4 191.9 168.3C191.3 168.1 190.6 168 190 168C189.2 168 188.5 168.1 188 168.3C187.5 168.5 187.1 168.8 186.8 169.2C186.6 169.6 186.4 170 186.4 170.4C186.4 170.9 186.5 171.3 186.8 171.7C187.1 172 187.5 172.3 188 172.4C188.5 172.6 189 172.7 189.6 172.9C190.2 173 190.8 173.2 191.3 173.4C191.9 173.6 192.4 173.8 192.9 174C193.4 174.3 193.8 174.6 194.1 175C194.4 175.4 194.5 176 194.5 176.7C194.5 177.3 194.3 177.9 194 178.5C193.6 179.1 193.1 179.5 192.4 179.8C191.7 180 190.8 180.2 189.7 180.2Z" fill="#21D0ED"/>
<path d="M205.3 180.2C204.3 180.2 203.5 180 202.7 179.5C201.9 179.1 201.3 178.5 200.9 177.7C200.5 176.9 200.2 176 200.2 175.1C200.2 174.1 200.4 173.2 200.9 172.5C201.3 171.7 201.9 171.1 202.7 170.7C203.5 170.3 204.3 170.1 205.3 170.1C206.3 170.1 207.2 170.3 207.9 170.8C208.7 171.2 209.3 171.8 209.7 172.6C210.1 173.4 210.4 174.2 210.4 175.2C210.4 176.2 210.2 177.1 209.7 177.8C209.3 178.6 208.7 179.2 207.9 179.6C207.2 180 206.3 180.2 205.3 180.2ZM205.3 179C206 179 206.7 178.8 207.2 178.5C207.8 178.2 208.2 177.7 208.5 177.1C208.8 176.5 209 175.8 209 175.1C209 174.3 208.8 173.6 208.5 173C208.2 172.4 207.7 172 207.2 171.6C206.6 171.3 206 171.1 205.3 171.1C204.6 171.1 204 171.3 203.4 171.6C202.8 171.9 202.4 172.4 202.1 173C201.8 173.6 201.6 174.3 201.6 175.1C201.6 175.9 201.8 176.6 202.1 177.1C202.4 177.7 202.9 178.1 203.4 178.5C204 178.8 204.6 179 205.3 179Z" fill="#21D0ED"/>
<path d="M217 180.1V166H218.4V180.1H217Z" fill="#21D0ED"/>
<path d="M230 180.2C229.1 180.2 228.4 180 227.8 179.7C227.2 179.4 226.7 178.9 226.3 178.3C225.9 177.7 225.8 176.9 225.8 175.9V170.1H227.2V175.8C227.2 176.9 227.5 177.7 228 178.2C228.5 178.7 229.3 179 230.2 179C230.9 179 231.5 178.9 232 178.6C232.5 178.3 232.9 177.9 233.2 177.4C233.5 176.9 233.6 176.2 233.6 175.4V170.2H235V180.2H233.7V177.5L233.9 178C233.6 178.7 233.1 179.3 232.4 179.7C231.7 180 230.9 180.2 230 180.2Z" fill="#21D0ED"/>
<path d="M241 171.2V170.1H247.2V171.2H241ZM245.7 180.2C244.8 180.2 244 179.9 243.5 179.4C243 178.9 242.7 178.2 242.7 177.2V167.8H244.1V177.1C244.1 177.7 244.2 178.1 244.5 178.5C244.8 178.8 245.2 179 245.8 179C246.4 179 246.9 178.8 247.3 178.5L247.8 179.5C247.5 179.7 247.2 179.9 246.8 180C246.4 180.1 246.1 180.2 245.7 180.2Z" fill="#21D0ED"/>
<path d="M254.8 167.9C254.5 167.9 254.3 167.8 254.1 167.6C253.9 167.4 253.8 167.2 253.8 166.9C253.8 166.6 253.9 166.4 254.1 166.2C254.3 166 254.5 165.9 254.8 165.9C255.1 165.9 255.3 166 255.5 166.2C255.7 166.4 255.8 166.6 255.8 166.9C255.8 167.2 255.7 167.4 255.5 167.6C255.3 167.8 255.1 167.9 254.8 167.9ZM254.1 180.1V170.1H255.5V180.1H254.1Z" fill="#21D0ED"/>
<path d="M267.1 180.2C266.1 180.2 265.3 180 264.5 179.5C263.7 179.1 263.1 178.5 262.7 177.7C262.3 176.9 262 176 262 175.1C262 174.1 262.2 173.2 262.7 172.5C263.1 171.7 263.7 171.1 264.5 170.7C265.3 170.3 266.1 170.1 267.1 170.1C268.1 170.1 269 170.3 269.7 170.8C270.5 171.2 271.1 171.8 271.5 172.6C271.9 173.4 272.2 174.2 272.2 175.2C272.2 176.2 272 177.1 271.5 177.8C271.1 178.6 270.5 179.2 269.7 179.6C268.9 180 268.1 180.2 267.1 180.2ZM267.1 179C267.8 179 268.5 178.8 269 178.5C269.6 178.2 270 177.7 270.3 177.1C270.6 176.5 270.8 175.8 270.8 175.1C270.8 174.3 270.6 173.6 270.3 173C270 172.4 269.5 172 269 171.6C268.4 171.3 267.8 171.1 267.1 171.1C266.4 171.1 265.8 171.3 265.2 171.6C264.6 171.9 264.2 172.4 263.9 173C263.6 173.6 263.4 174.3 263.4 175.1C263.4 175.9 263.6 176.6 263.9 177.1C264.2 177.7 264.7 178.1 265.2 178.5C265.8 178.8 266.4 179 267.1 179Z" fill="#21D0ED"/>
<path d="M283.9 170C284.7 170 285.4 170.2 286 170.5C286.6 170.8 287.1 171.3 287.4 171.9C287.7 172.5 287.9 173.3 287.9 174.3V180.1H286.5V174.4C286.5 173.3 286.2 172.5 285.7 172C285.2 171.5 284.4 171.2 283.5 171.2C282.8 171.2 282.2 171.3 281.6 171.6C281.1 171.9 280.7 172.3 280.4 172.8C280.1 173.3 280 174 280 174.8V180.1H278.6V170.1H279.9V172.8L279.7 172.3C280 171.6 280.5 171 281.2 170.6C282.1 170.2 282.9 170 283.9 170Z" fill="#21D0ED"/>
<path d="M274 41.4C272.5 52.7 266.7 62.8 260.3 68.9C257.4 71.6 254.9 73.2 252.2 74.9C238.1 83.7 224.3 85 219 85.2C211 85.4 196.2 85.9 184.2 75.7C181.9 73.8 176.4 69.1 173.7 61.8C184.5 64.6 195.9 65.5 207.2 63C221.7 59.9 240 50.7 243.5 35.3C244.1 32.5 245.2 25.3 241.4 18C235.7 7.2 223.3 4.59998 219.2 3.79998C201.3 0.199983 180.7 8.49999 169 23.9L168.9 24C164.4 29.9 161.3 36 159.7 42.1C149.7 37.5 140.4 31.9 132.9 27.3L132.8 27.2C124.6 22.2 115 16.8 105.7 12.1C94.1 6.2 85.8 2.7 74.8 1.1C67.9 0.100002 62.3 0.199983 59.5 0.299983C30 1.89998 15.5 14.8 8.49998 25.3C-0.10002 38.4 -0.600014 50.2 0.599986 57.9C2.29999 69.4 8.69998 79.5 19.5 88C31.1 97.1 44.4 99.7 56.1 99.7C70.3 99.7 82.2 95.7 85.8 94.4C97.2 90.1 105.7 83.7 111.2 79.2C114.5 76.5 117.7 73.5 120.6 70.4L127.3 75.8L131.2 49.6L117.4 52.8L117.3 52.7L117.2 52.8L103 56.1L109.8 61.6C107.5 64 105 66.3 102.4 68.4C99.4 70.8 91.5 77.3 80.9 81.3C77.6 82.5 48.3 92.8 27.9 76.9C24.9 74.6 15.9 67.6 14.2 55.7C13 48 15 40.3 20 32.8C27.5 21.5 41.4 15 60.2 14C62.4 13.9 67 13.8 72.7 14.7C81.8 16.1 88.8 19 99.3 24.4C108.3 29 117.6 34.2 125.5 39L125.6 39.1C134.3 44.4 145.6 51.3 158.4 56.6C158.5 57.4 158.6 58.3 158.7 59.1C161.2 74.3 171.8 83.2 175.3 86.2C191.3 99.7 210.3 99.2 219.4 98.9C225.8 98.7 242.6 97.1 259.5 86.5C262.3 84.7 265.8 82.5 269.7 78.9C278.7 70.4 286.4 56.7 287.9 41.3H274V41.4ZM179.8 32.5C188.3 21.2 203.7 14.9 216.4 17.5C219.4 18.1 226.5 19.5 229.1 24.6C230.8 27.9 230.1 31.7 230 32.4C228.2 40.5 215.7 47.2 204.3 49.7C193.7 52 182.9 50.6 172.6 47.4C174.1 40 178.2 34.7 179.8 32.5Z" fill="#21D0ED"/>
</svg>
