<svg width="155" height="97" viewBox="0 0 155 97" fill="none" xmlns="http://www.w3.org/2000/svg">
<path d="M3.49989 78.3741H10.0549V80.6111H0.731201V68.5696H9.83208V70.8067H3.50164V78.3741H3.49989ZM3.29285 73.4017H9.0899V75.5861H3.29285V73.4017Z" fill="white"/>
<path d="M32.2803 80.6111H29.4766V68.5696H38.5774V70.8067H32.2803V80.6111ZM32.0575 73.9877H37.837V76.2247H32.0575V73.9877Z" fill="white"/>
<path d="M60.4752 80.6111H57.6714V68.5696H66.7723V70.8067H60.4752V80.6111ZM60.2523 73.9877H66.0318V76.2247H60.2523V73.9877Z" fill="white"/>
<path d="M88.6378 78.3741H95.1928V80.6111H85.8691V68.5696H94.97V70.8067H88.6396V78.3741H88.6378ZM88.4308 73.4017H94.2278V75.5861H88.4308V73.4017Z" fill="white"/>
<path d="M120.378 80.8166C119.449 80.8166 118.586 80.6639 117.788 80.3604C116.991 80.0568 116.3 79.6235 115.714 79.062C115.13 78.5005 114.674 77.8408 114.347 77.0829C114.021 76.3267 113.858 75.495 113.858 74.5879C113.858 73.6825 114.021 72.8509 114.347 72.0929C114.674 71.3367 115.133 70.677 115.723 70.1138C116.314 69.5523 117.007 69.1189 117.804 68.8154C118.6 68.5119 119.463 68.3592 120.393 68.3592C121.437 68.3592 122.383 68.5399 123.232 68.9014C124.081 69.2628 124.792 69.7927 125.366 70.4928L123.559 72.1438C123.157 71.6736 122.701 71.3174 122.192 71.077C121.681 70.8367 121.129 70.7156 120.532 70.7156C119.971 70.7156 119.453 70.8103 118.984 70.9998C118.514 71.1893 118.107 71.456 117.763 71.7999C117.419 72.1438 117.153 72.5509 116.963 73.0211C116.774 73.4913 116.679 74.0124 116.679 74.5861C116.679 75.1599 116.774 75.681 116.963 76.1512C117.153 76.6214 117.419 77.0285 117.763 77.3724C118.107 77.7163 118.514 77.983 118.984 78.1724C119.455 78.3619 119.971 78.4567 120.532 78.4567C121.129 78.4567 121.681 78.3339 122.192 78.0865C122.702 77.8408 123.159 77.4812 123.559 77.0109L125.366 78.662C124.792 79.362 124.081 79.8954 123.232 80.2621C122.385 80.6341 121.432 80.8166 120.378 80.8166Z" fill="white"/>
<path d="M146.923 80.6111V70.84H143.068V68.5696H153.562V70.84H149.709V80.6111H146.923Z" fill="white"/>
<path d="M3.04064 96.9237V89.0616H0V88.2703H6.99716V89.0616H3.95652V96.9237H3.04064Z" fill="white"/>
<path d="M13.4995 96.987C12.824 96.987 12.231 96.8449 11.7186 96.5606C11.2081 96.2764 10.808 95.8851 10.5203 95.3868C10.2308 94.8885 10.0869 94.3183 10.0869 93.6744C10.0869 93.0322 10.2255 92.462 10.501 91.9689C10.7765 91.4742 11.1554 91.0846 11.6379 90.8004C12.1204 90.5162 12.6626 90.3741 13.2627 90.3741C13.8732 90.3741 14.4136 90.5127 14.8891 90.7881C15.3629 91.0636 15.7366 91.4514 16.0085 91.9497C16.2805 92.4479 16.4173 93.0234 16.4173 93.6744C16.4173 93.7165 16.4156 93.7586 16.4103 93.8042C16.4068 93.8498 16.4033 93.8972 16.4033 93.9463H10.7536V93.2919H15.9331L15.5874 93.5516C15.5874 93.0813 15.4857 92.6638 15.2839 92.297C15.0821 91.9303 14.8084 91.6444 14.461 91.4373C14.1154 91.232 13.7153 91.1285 13.2627 91.1285C12.817 91.1285 12.4187 91.232 12.0643 91.4373C11.7099 91.6426 11.4344 91.9321 11.2361 92.3023C11.0379 92.6725 10.9396 93.0971 10.9396 93.5761V93.713C10.9396 94.2078 11.0484 94.6429 11.2677 95.0166C11.4853 95.3921 11.7906 95.6833 12.1819 95.8939C12.5731 96.1044 13.0205 96.2097 13.5223 96.2097C13.9171 96.2097 14.2873 96.1395 14.6295 95.9992C14.9716 95.8588 15.2664 95.6447 15.5138 95.357L16.0085 95.9255C15.7208 96.2711 15.3594 96.5361 14.9277 96.7168C14.4944 96.8957 14.0189 96.987 13.4995 96.987Z" fill="white"/>
<path d="M23.3761 96.987C22.7339 96.987 22.1584 96.8449 21.6514 96.5606C21.1443 96.2764 20.746 95.8851 20.4583 95.3868C20.1688 94.8885 20.0249 94.3183 20.0249 93.6744C20.0249 93.0234 20.1688 92.4497 20.4583 91.9567C20.746 91.4619 21.1443 91.0741 21.6514 90.7952C22.1584 90.5162 22.7322 90.3741 23.3761 90.3741C23.9288 90.3741 24.4271 90.4811 24.8727 90.6951C25.3184 90.9092 25.6676 91.2303 25.9237 91.6601L25.2693 92.1058C25.0464 91.7759 24.771 91.5338 24.4411 91.3759C24.1113 91.2198 23.7533 91.1408 23.3656 91.1408C22.9041 91.1408 22.4883 91.2461 22.1163 91.4566C21.7461 91.6672 21.4531 91.9619 21.2391 92.3409C21.025 92.7199 20.918 93.1656 20.918 93.6761C20.918 94.1867 21.025 94.6324 21.2391 95.0113C21.4531 95.3903 21.7461 95.6851 22.1163 95.8956C22.4865 96.1062 22.9024 96.2115 23.3656 96.2115C23.7533 96.2115 24.1113 96.1325 24.4411 95.9763C24.771 95.8202 25.0464 95.5816 25.2693 95.2587L25.9237 95.7044C25.6676 96.1255 25.3184 96.4448 24.8727 96.6624C24.4271 96.8764 23.9288 96.987 23.3761 96.987Z" fill="white"/>
<path d="M33.4258 90.3721C33.954 90.3721 34.4172 90.4739 34.8172 90.6757C35.2172 90.8775 35.5295 91.1845 35.7559 91.5968C35.9822 92.0091 36.0963 92.5285 36.0963 93.1549V96.9254H35.219V93.2408C35.219 92.5566 35.047 92.039 34.7067 91.6898C34.3645 91.3389 33.8838 91.1652 33.2662 91.1652C32.8047 91.1652 32.4029 91.2582 32.0608 91.4424C31.7187 91.6284 31.4555 91.8951 31.2695 92.246C31.0835 92.5969 30.9923 93.018 30.9923 93.5128V96.9254H30.115V87.7526H30.9923V92.2144L30.8186 91.8811C31.0239 91.4108 31.3537 91.0424 31.8081 90.7739C32.2591 90.5073 32.7995 90.3721 33.4258 90.3721Z" fill="white"/>
<path d="M44.2549 90.3725C44.7831 90.3725 45.2463 90.4743 45.6463 90.6761C46.0463 90.8778 46.3586 91.1849 46.585 91.5972C46.8113 92.0095 46.9254 92.5289 46.9254 93.1553V96.9258H46.0481V93.2412C46.0481 92.557 45.8761 92.0394 45.5358 91.6902C45.1936 91.3393 44.7129 91.1656 44.0953 91.1656C43.6338 91.1656 43.232 91.2586 42.8899 91.4428C42.5478 91.6288 42.2846 91.8955 42.0986 92.2464C41.9126 92.5973 41.8214 93.0184 41.8214 93.5132V96.9258H40.9441V90.4357H41.7845V92.2166L41.6494 91.8832C41.8547 91.413 42.1846 91.0445 42.639 90.7761C43.0882 90.5076 43.6286 90.3725 44.2549 90.3725Z" fill="white"/>
<path d="M52.2157 89.0004C52.035 89.0004 51.8823 88.9389 51.7578 88.8144C51.6349 88.6916 51.5718 88.5424 51.5718 88.3687C51.5718 88.195 51.6332 88.0494 51.7578 87.9301C51.8806 87.8108 52.0332 87.7511 52.2157 87.7511C52.3964 87.7511 52.5491 87.809 52.6736 87.9248C52.7965 88.0406 52.8596 88.1845 52.8596 88.3582C52.8596 88.5389 52.8 88.6915 52.6807 88.8161C52.5596 88.9389 52.4052 89.0004 52.2157 89.0004ZM51.77 96.9239V90.4338H52.6473V96.9239H51.77Z" fill="white"/>
<path d="M60.2635 96.987C59.6214 96.987 59.0459 96.8449 58.5388 96.5606C58.0318 96.2764 57.6335 95.8851 57.3457 95.3868C57.0562 94.8885 56.9124 94.3183 56.9124 93.6744C56.9124 93.0234 57.0562 92.4497 57.3457 91.9567C57.6335 91.4619 58.0318 91.0741 58.5388 90.7952C59.0459 90.5162 59.6196 90.3741 60.2635 90.3741C60.8162 90.3741 61.3145 90.4811 61.7602 90.6951C62.2058 90.9092 62.555 91.2303 62.8112 91.6601L62.1567 92.1058C61.9339 91.7759 61.6584 91.5338 61.3286 91.3759C60.9987 91.2198 60.6408 91.1408 60.253 91.1408C59.7916 91.1408 59.3757 91.2461 59.0038 91.4566C58.6336 91.6672 58.3406 91.9619 58.1265 92.3409C57.9124 92.7199 57.8054 93.1656 57.8054 93.6761C57.8054 94.1867 57.9124 94.6324 58.1265 95.0113C58.3406 95.3903 58.6336 95.6851 59.0038 95.8956C59.374 96.1062 59.7898 96.2115 60.253 96.2115C60.6408 96.2115 60.9987 96.1325 61.3286 95.9763C61.6584 95.8202 61.9339 95.5816 62.1567 95.2587L62.8112 95.7044C62.555 96.1255 62.2058 96.4448 61.7602 96.6624C61.3128 96.8764 60.8145 96.987 60.2635 96.987Z" fill="white"/>
<path d="M68.8292 96.9872C68.3432 96.9872 67.9204 96.9065 67.5624 96.7468C67.2045 96.5854 66.9291 96.3643 66.7396 96.0801C66.5501 95.7959 66.4553 95.4678 66.4553 95.0976C66.4553 94.7607 66.536 94.4536 66.6957 94.1764C66.8571 93.9009 67.1203 93.6781 67.487 93.5097C67.8537 93.3412 68.3467 93.257 68.9643 93.257H71.2014V93.9115H68.9907C68.3643 93.9115 67.9292 94.022 67.687 94.2448C67.4431 94.4677 67.3221 94.7431 67.3221 95.073C67.3221 95.4432 67.4659 95.7397 67.7554 95.9625C68.0432 96.1854 68.4485 96.2959 68.9661 96.2959C69.4609 96.2959 69.8872 96.1819 70.2452 95.9555C70.6031 95.7292 70.8645 95.4011 71.0294 94.973L71.2277 95.5783C71.0628 96.0064 70.7768 96.3485 70.368 96.6047C69.9609 96.8591 69.4468 96.9872 68.8292 96.9872ZM71.0663 96.924V95.4906L71.0294 95.2555V92.857C71.0294 92.3043 70.8751 91.8797 70.5662 91.5832C70.2574 91.2867 69.7978 91.1375 69.1872 91.1375C68.7661 91.1375 68.3678 91.2077 67.9888 91.3481C67.6098 91.4884 67.2887 91.6744 67.0238 91.9043L66.629 91.2498C66.9589 90.9691 67.3537 90.7533 67.8151 90.6006C68.2766 90.448 68.7626 90.3725 69.2731 90.3725C70.1136 90.3725 70.7628 90.5813 71.2207 90.9971C71.6786 91.413 71.9067 92.0464 71.9067 92.8938V96.924H71.0663Z" fill="white"/>
<path d="M76.7651 96.9239V87.7511H77.6424V96.9239H76.7651Z" fill="white"/>
<path d="M90.8459 97C90.2038 97 89.5862 96.8947 88.9984 96.6842C88.4089 96.4736 87.9544 96.2034 87.6316 95.8753L87.9895 95.17C88.2948 95.4665 88.7036 95.7157 89.2195 95.9174C89.7335 96.1192 90.2757 96.221 90.8442 96.221C91.3881 96.221 91.8302 96.1525 92.1724 96.0174C92.5145 95.8823 92.7654 95.6981 92.9268 95.4683C93.0883 95.2384 93.1672 94.9823 93.1672 94.7015C93.1672 94.3629 93.0707 94.0909 92.8759 93.8857C92.6829 93.6804 92.4285 93.5172 92.1162 93.3979C91.8022 93.2786 91.4565 93.1733 91.0775 93.0821C90.6985 92.9908 90.3196 92.8943 89.9406 92.7908C89.5616 92.6873 89.2124 92.5504 88.8966 92.3767C88.579 92.203 88.3229 91.9749 88.1299 91.6907C87.9369 91.4065 87.8386 91.0327 87.8386 90.5713C87.8386 90.1432 87.9527 89.7484 88.179 89.3905C88.4053 89.0326 88.7545 88.7431 89.223 88.5255C89.6932 88.3079 90.295 88.1974 91.0284 88.1974C91.5144 88.1974 91.9969 88.2658 92.4742 88.4009C92.9514 88.5378 93.3637 88.7238 93.7111 88.9641L93.4023 89.694C93.0321 89.4466 92.6373 89.2659 92.2215 89.1501C91.8057 89.0343 91.4039 88.9764 91.0161 88.9764C90.4968 88.9764 90.0687 89.0466 89.73 89.187C89.3914 89.3273 89.1423 89.5151 88.9826 89.7502C88.8212 89.9853 88.7422 90.2502 88.7422 90.5467C88.7422 90.8854 88.8387 91.1573 89.0335 91.3626C89.2265 91.5679 89.4826 91.7293 89.8002 91.8451C90.1178 91.9609 90.4652 92.0644 90.8442 92.1539C91.2232 92.2451 91.6004 92.3434 91.9759 92.4504C92.3513 92.5575 92.697 92.6961 93.0146 92.8645C93.3321 93.0329 93.5865 93.2575 93.7813 93.5383C93.9743 93.819 94.0726 94.1857 94.0726 94.6384C94.0726 95.0594 93.9568 95.449 93.7269 95.8069C93.4953 96.1648 93.1444 96.4543 92.6707 96.6719C92.1952 96.8894 91.5881 97 90.8459 97Z" fill="white"/>
<path d="M100.994 96.987C100.359 96.987 99.7956 96.8449 99.3008 96.5606C98.806 96.2764 98.4147 95.8834 98.127 95.3798C97.8392 94.878 97.6936 94.3078 97.6936 93.6744C97.6936 93.0234 97.8375 92.4497 98.127 91.9567C98.4147 91.4619 98.8077 91.0741 99.3008 90.7952C99.7938 90.5162 100.359 90.3741 100.994 90.3741C101.636 90.3741 102.208 90.5162 102.706 90.8004C103.205 91.0846 103.596 91.4724 103.88 91.9619C104.164 92.4532 104.307 93.0234 104.307 93.6744C104.307 94.3165 104.164 94.8885 103.88 95.3868C103.596 95.8851 103.203 96.2764 102.699 96.5606C102.198 96.8431 101.629 96.987 100.994 96.987ZM100.994 96.2079C101.464 96.2079 101.88 96.1027 102.243 95.8921C102.606 95.6816 102.892 95.3851 103.103 95.0026C103.313 94.6201 103.419 94.1762 103.419 93.6744C103.419 93.1638 103.313 92.7181 103.103 92.3392C102.892 91.9602 102.606 91.6654 102.243 91.4549C101.88 91.2443 101.468 91.139 101.008 91.139C100.547 91.139 100.134 91.2443 99.771 91.4549C99.4078 91.6654 99.1201 91.9602 98.906 92.3392C98.6919 92.7181 98.5849 93.1638 98.5849 93.6744C98.5849 94.1779 98.6919 94.6201 98.906 95.0026C99.1201 95.3851 99.406 95.6833 99.7657 95.8921C100.124 96.1027 100.532 96.2079 100.994 96.2079Z" fill="white"/>
<path d="M108.572 96.9239V87.7511H109.45V96.9239H108.572Z" fill="white"/>
<path d="M117.051 96.9871C116.498 96.9871 116.018 96.8836 115.605 96.6783C115.193 96.4731 114.874 96.1643 114.647 95.7519C114.421 95.3396 114.307 94.8255 114.307 94.2062V90.4356H115.184V94.1079C115.184 94.801 115.354 95.3221 115.696 95.6712C116.039 96.0221 116.519 96.1958 117.137 96.1958C117.59 96.1958 117.984 96.1028 118.318 95.9186C118.651 95.7344 118.907 95.4642 119.085 95.1098C119.262 94.7553 119.349 94.3308 119.349 93.836V90.4356H120.227V96.9257H119.386V95.1449L119.521 95.4659C119.316 95.9432 118.997 96.3169 118.563 96.5854C118.134 96.852 117.628 96.9871 117.051 96.9871Z" fill="white"/>
<path d="M124.135 91.1637V90.4338H128.152V91.1637H124.135ZM127.201 96.9871C126.591 96.9871 126.122 96.8221 125.793 96.4923C125.463 96.1624 125.298 95.6975 125.298 95.0957V89.0021H126.175V95.0465C126.175 95.4255 126.272 95.7185 126.466 95.9238C126.659 96.1291 126.938 96.2326 127.301 96.2326C127.689 96.2326 128.01 96.1221 128.266 95.8992L128.575 96.5291C128.402 96.6853 128.195 96.8011 127.951 96.8748C127.705 96.9485 127.456 96.9871 127.201 96.9871Z" fill="white"/>
<path d="M133.085 89.0004C132.904 89.0004 132.751 88.9389 132.627 88.8144C132.504 88.6916 132.441 88.5424 132.441 88.3687C132.441 88.195 132.502 88.0494 132.627 87.9301C132.751 87.8108 132.902 87.7511 133.085 87.7511C133.266 87.7511 133.418 87.809 133.543 87.9248C133.667 88.0406 133.729 88.1845 133.729 88.3582C133.729 88.5389 133.669 88.6915 133.55 88.8161C133.429 88.9389 133.274 89.0004 133.085 89.0004ZM132.641 96.9239V90.4338H133.518V96.9239H132.641Z" fill="white"/>
<path d="M141.084 96.987C140.449 96.987 139.886 96.8449 139.391 96.5606C138.896 96.2764 138.505 95.8834 138.217 95.3798C137.929 94.878 137.784 94.3078 137.784 93.6744C137.784 93.0234 137.928 92.4497 138.217 91.9567C138.505 91.4619 138.898 91.0741 139.391 90.7952C139.884 90.5162 140.449 90.3741 141.084 90.3741C141.726 90.3741 142.298 90.5162 142.796 90.8004C143.295 91.0846 143.686 91.4724 143.97 91.9619C144.254 92.4532 144.397 93.0234 144.397 93.6744C144.397 94.3165 144.254 94.8885 143.97 95.3868C143.686 95.8851 143.293 96.2764 142.789 96.5606C142.286 96.8431 141.717 96.987 141.084 96.987ZM141.084 96.2079C141.554 96.2079 141.97 96.1027 142.333 95.8921C142.696 95.6816 142.982 95.3851 143.193 95.0026C143.404 94.6201 143.509 94.1762 143.509 93.6744C143.509 93.1638 143.404 92.7181 143.193 92.3392C142.982 91.9602 142.696 91.6654 142.333 91.4549C141.97 91.2443 141.558 91.139 141.098 91.139C140.637 91.139 140.224 91.2443 139.861 91.4549C139.498 91.6654 139.21 91.9602 138.996 92.3392C138.782 92.7181 138.675 93.1638 138.675 93.6744C138.675 94.1779 138.782 94.6201 138.996 95.0026C139.21 95.3851 139.496 95.6833 139.856 95.8921C140.212 96.1027 140.621 96.2079 141.084 96.2079Z" fill="white"/>
<path d="M151.974 90.3725C152.501 90.3725 152.965 90.4743 153.366 90.6761C153.766 90.8778 154.078 91.1849 154.304 91.5972C154.531 92.0095 154.645 92.5289 154.645 93.1553V96.9258H153.767V93.2412C153.767 92.557 153.595 92.0394 153.255 91.6902C152.913 91.3393 152.432 91.1656 151.815 91.1656C151.353 91.1656 150.951 91.2586 150.609 91.4428C150.267 91.6288 150.004 91.8955 149.818 92.2464C149.632 92.5973 149.541 93.0184 149.541 93.5132V96.9258H148.663V90.4357H149.504V92.2166L149.369 91.8832C149.574 91.413 149.904 91.0445 150.358 90.7761C150.807 90.5076 151.348 90.3725 151.974 90.3725Z" fill="white"/>
<path d="M146.051 22.3694C145.255 28.4051 142.172 33.7933 138.724 37.048C137.187 38.4991 135.845 39.3395 134.426 40.229C126.93 44.9277 119.561 45.6243 116.741 45.705C112.499 45.8278 104.603 46.0542 98.1975 40.6554C96.9676 39.6202 94.048 37.1586 92.5812 33.2494C98.3238 34.7162 104.391 35.218 110.46 33.9056C118.206 32.23 127.918 27.3594 129.788 19.1481C130.127 17.6637 130.694 13.7932 128.667 9.94192C125.626 4.16417 118.998 2.82369 116.819 2.3833C107.291 0.4568 96.278 4.87301 90.0371 13.1229L90.0072 13.1615C87.6088 16.332 85.9682 19.5551 85.0927 22.8098C79.7361 20.3798 74.8321 17.3795 70.7913 14.9108L70.7159 14.8652C66.3436 12.1895 61.2062 9.32783 56.2531 6.80653C50.0771 3.66412 45.624 1.79728 39.7884 0.934037C36.1056 0.388371 33.107 0.437496 31.6455 0.514696C15.9334 1.34109 8.20111 8.21719 4.48321 13.8405C-0.118984 20.7991 -0.354095 27.1295 0.258244 31.2141C1.17939 37.3498 4.56919 42.7433 10.3504 47.2525C16.537 52.0811 23.6149 53.5145 29.8453 53.5145C37.4302 53.5145 43.7589 51.3863 45.6749 50.6686C51.7492 48.393 56.304 44.9663 59.2025 42.5854C60.9764 41.1291 62.652 39.5553 64.2241 37.8797L67.8139 40.7695L69.8772 26.8313L62.5081 28.5402L62.4625 28.5069C62.4502 28.5244 62.4362 28.542 62.4221 28.5595L54.8337 30.3176L58.4761 33.2494C57.2339 34.5425 55.9197 35.7637 54.5372 36.9007C52.9493 38.2043 48.7313 41.6678 43.0975 43.7785C41.3517 44.4312 25.7326 49.9212 14.8649 41.4397C13.2876 40.2097 8.48886 36.4655 7.53789 30.1211C6.92555 26.0329 7.96249 21.9185 10.6242 17.8953C14.6175 11.8544 22.0217 8.38388 32.0367 7.85751C33.2228 7.79434 35.6669 7.7575 38.7146 8.20842C43.5782 8.92779 47.3137 10.5086 52.9195 13.3598C57.7076 15.7969 62.6642 18.5568 66.8787 21.136L66.9559 21.1834C71.5721 24.0064 77.6236 27.7068 84.4523 30.5158C84.4979 30.9615 84.5558 31.4054 84.6295 31.851C85.963 39.9624 91.6039 44.7154 93.4584 46.2787C102.012 53.4865 112.104 53.197 116.955 53.0566C120.377 52.9583 129.308 52.1179 138.335 46.4612C139.84 45.519 141.712 44.3452 143.777 42.3959C148.585 37.8586 152.666 30.5667 153.475 22.3677H146.051V22.3694ZM95.8745 17.6006L95.9043 17.562C100.429 11.5807 108.613 8.23123 115.362 9.59452C116.973 9.92086 120.744 10.6823 122.158 13.3686C123.089 15.1389 122.703 17.1338 122.616 17.5146C121.635 21.8203 114.976 25.4031 108.904 26.7155C103.261 27.9366 97.508 27.1909 92.0162 25.4803C92.8251 21.629 94.9902 18.7691 95.8745 17.6006Z" fill="#21D0ED"/>
</svg>
