<svg width="44" height="44" viewBox="0 0 44 44" fill="none" xmlns="http://www.w3.org/2000/svg">
<g clip-path="url(#clip0_1224_811)">
<path d="M11.6361 13.549C11.7489 14.2368 12.0149 14.6694 12.2755 14.9461C12.8961 19.0836 16.362 22.9256 19.5242 22.9256C23.213 22.9256 26.5714 18.7693 27.2216 14.9542C27.4849 14.6828 27.7562 14.2449 27.8718 13.5517C28.0813 12.7752 28.3554 11.4265 27.8771 10.7978C27.8503 10.7656 27.8234 10.736 27.7992 10.7065C28.2452 9.07835 28.8121 5.71461 26.7917 3.42286C26.6144 3.19181 25.486 1.84309 23.0653 1.12842L21.9181 0.728107C20.0159 0.139721 18.8176 0.0107598 18.7692 0.00269967C18.686 -0.00536041 18.5946 0.00269967 18.5113 0.0241932C18.4442 0.0430001 18.2212 0.102107 18.0438 0.0806138C17.5898 0.0161331 16.9074 0.249876 16.7865 0.295549C16.6253 0.357343 12.9445 1.83503 11.8268 5.26325C11.722 5.54266 11.2761 6.99885 11.8698 10.5748C11.7812 10.6339 11.7006 10.7065 11.6334 10.7978C11.1552 11.4265 11.4238 12.7726 11.6361 13.549ZM13.0815 5.75223C13.0896 5.73611 13.0949 5.7173 13.103 5.6958C14.0138 2.8694 17.2432 1.56367 17.2647 1.55292C17.4125 1.4965 17.6999 1.4159 17.8531 1.4159C18.1701 1.45889 18.5355 1.40247 18.7343 1.35679C19.0594 1.40247 20.0696 1.56636 21.4962 2.00697L22.6569 2.4046C24.8089 3.04135 25.7224 4.23424 25.7278 4.2423C25.7439 4.26111 25.76 4.27723 25.7708 4.29335C27.638 6.39703 26.6789 9.87899 26.3377 10.8946C26.2598 11.1337 26.3162 11.397 26.4908 11.5743C26.5795 11.6656 26.6843 11.7274 26.7998 11.7597C26.8052 12.0901 26.7111 12.6946 26.5633 13.2239C26.558 13.2481 26.5526 13.275 26.5472 13.2991C26.4908 13.6726 26.3645 13.944 26.1953 14.0675C26.0529 14.175 25.9535 14.3389 25.9266 14.5162C25.4806 17.7134 22.5199 21.5795 19.5269 21.5795C17.0068 21.5795 14.0057 18.0197 13.5812 14.5297C13.5597 14.347 13.4657 14.1831 13.3153 14.0729C13.146 13.944 13.0197 13.6699 12.9633 13.3018C12.9606 13.275 12.9552 13.2481 12.9472 13.2239C12.8102 12.7323 12.7215 12.1707 12.7134 11.8322C12.8397 11.8188 12.966 11.7758 13.0735 11.6898C13.2723 11.534 13.369 11.2814 13.3206 11.0316C12.5818 7.15199 13.0815 5.75223 13.0815 5.75223Z" fill="#21D0ED"/>
<path d="M32.8421 25.1556C30.8593 23.8471 27.8583 22.8987 27.8583 22.8987C24.8465 21.8348 24.825 20.7762 24.825 20.7762C18.9062 32.4472 14.4114 20.8139 14.4114 20.8139C13.9976 22.3883 7.90151 24.2367 7.90151 24.2367C6.12023 24.9191 5.36796 25.9454 5.36796 25.9454C2.735 29.8519 2.42334 38.5434 2.42334 38.5434C2.45827 40.5288 3.31532 40.7357 3.31532 40.7357C9.37113 43.4385 18.8767 43.9194 18.8767 43.9194C21.5231 43.9759 23.9653 43.7932 26.1334 43.5057C24.0566 41.5632 22.7428 38.8093 22.7428 35.7492C22.7401 30.0695 27.2269 25.4296 32.8421 25.1556Z" fill="#21D0ED"/>
<path d="M32.9629 26.7676C28.2128 26.7676 24.3467 30.631 24.3467 35.3838C24.3467 40.1419 28.2128 44 32.9629 44C37.7184 44 41.5791 40.1393 41.5791 35.3838C41.5791 30.6337 37.7157 26.7676 32.9629 26.7676ZM32.396 39.6207C32.2133 39.8007 31.9178 39.8007 31.7351 39.6207L27.5895 35.4429C27.4068 35.2656 27.4068 34.9647 27.5895 34.7847L28.5809 33.7933C28.7636 33.6133 29.0591 33.6133 29.2418 33.7933L32.0709 36.6439L37.5652 31.1523C37.7425 30.9696 38.0434 30.9696 38.2261 31.1523L39.2122 32.1383C39.3949 32.321 39.3949 32.6219 39.2122 32.8046L32.396 39.6207Z" fill="#21D0ED"/>
</g>
<defs>
<clipPath id="clip0_1224_811">
<rect width="44" height="44" fill="white"/>
</clipPath>
</defs>
</svg>
