<svg width="48" height="51" viewBox="0 0 48 51" fill="none" xmlns="http://www.w3.org/2000/svg">
<path fill-rule="evenodd" clip-rule="evenodd" d="M30.9764 42.8901C24.2906 42.8901 28.6928 44.5503 29.6038 37.2166C30.3292 31.406 33.0044 28.6958 36.1206 29.0444C39.2368 28.6958 41.9119 31.4185 42.6374 37.2166C43.5483 44.5337 47.9505 42.8901 41.2647 42.8901H38.6597C38.6597 44.5212 38.334 44.9197 39.9952 45.9075C43.5236 48.0076 47.559 46.6006 48 50.9917H0C0.770803 42.031 10.1771 47.5427 10.9025 41.3088C10.985 40.6074 8.74676 38.6941 8.36342 37.4075C7.53903 36.1042 7.26286 34.0374 8.1532 32.6553C8.50356 32.1116 8.35105 31.3188 8.35105 30.5801C8.35105 23.0886 20.8076 23.0845 20.8076 30.5801C20.8076 31.5305 20.5891 32.0618 21.1002 32.8088C21.9617 34.054 21.5124 36.262 20.7952 37.4199C20.3377 38.7729 17.9923 40.5576 18.1448 41.3213C19.1547 46.4844 25.0202 43.1226 27.4439 47.4971C28.8866 47.1069 30.6219 46.8828 32.2459 45.9158C33.87 44.9487 33.5938 44.5295 33.5815 42.8984H30.9764V42.8901ZM16.8464 0H33.7463C34.6618 0.00219206 35.5391 0.36933 36.1864 1.02111C36.8337 1.67289 37.1983 2.55627 37.2005 3.47803V13.4722C37.1983 14.3939 36.8337 15.2773 36.1864 15.9291C35.5391 16.5809 34.6618 16.948 33.7463 16.9502H22.8149L17.5718 21.4907C17.5138 21.5416 17.4464 21.5803 17.3734 21.6047C17.3005 21.6291 17.2234 21.6387 17.1467 21.6329C17.0701 21.6271 16.9953 21.6061 16.9267 21.571C16.8582 21.5359 16.7973 21.4874 16.7474 21.4285C16.6502 21.313 16.6001 21.1647 16.6073 21.0134L16.9 16.9502H16.8546C15.9392 16.948 15.0619 16.5809 14.4145 15.9291C13.7672 15.2773 13.4026 14.3939 13.4004 13.4722V3.47803C13.4026 2.5577 13.7661 1.67558 14.4116 1.02403C15.0572 0.372483 15.9324 0.00437992 16.8464 0ZM38.8988 7.33789C39.6681 7.49142 40.3609 7.90864 40.8591 8.51855C41.3574 9.12846 41.6304 9.89337 41.6316 10.6831V18.9839C41.6349 19.8877 41.2823 20.7559 40.6511 21.3985C40.0199 22.041 39.1615 22.4055 38.264 22.4121H38.1403L38.4247 26.5625C38.4343 26.6966 38.3914 26.8292 38.3052 26.9319C38.2617 26.983 38.2087 27.025 38.149 27.0554C38.0894 27.0858 38.0244 27.1041 37.9577 27.1091C37.8911 27.1141 37.8241 27.1058 37.7606 27.0846C37.6972 27.0635 37.6385 27.0299 37.588 26.9858L32.3201 22.2751H20.4242L23.8372 18.7764H36.0381C36.8034 18.7764 37.5373 18.4703 38.0784 17.9254C38.6195 17.3806 38.9235 16.6416 38.9235 15.8711V7.57031C38.9235 7.49146 38.9235 7.41675 38.9235 7.34204L38.8988 7.33789ZM18.5487 10.5129C18.4025 10.5006 18.2662 10.4333 18.1669 10.3245C18.0676 10.2158 18.0125 10.0734 18.0125 9.92566C18.0125 9.77791 18.0676 9.63554 18.1669 9.52678C18.2662 9.41801 18.4025 9.35077 18.5487 9.33838H29.6038C29.6845 9.33154 29.7657 9.34165 29.8424 9.36805C29.919 9.39446 29.9894 9.4366 30.049 9.4918C30.1086 9.547 30.1562 9.61407 30.1888 9.68875C30.2214 9.76343 30.2382 9.8441 30.2382 9.92566C30.2382 10.0072 30.2214 10.0879 30.1888 10.1626C30.1562 10.2373 30.1086 10.3043 30.049 10.3595C29.9894 10.4147 29.919 10.4569 29.8424 10.4833C29.7657 10.5097 29.6845 10.5198 29.6038 10.5129H18.5487ZM18.5487 6.48706C18.3946 6.48706 18.2468 6.42541 18.1378 6.31566C18.0288 6.20591 17.9675 6.05706 17.9675 5.90186C17.9675 5.74665 18.0288 5.5978 18.1378 5.48805C18.2468 5.37831 18.3946 5.31665 18.5487 5.31665H32.1511C32.3053 5.31665 32.4531 5.37831 32.5621 5.48805C32.6711 5.5978 32.7323 5.74665 32.7323 5.90186C32.7323 6.05706 32.6711 6.20591 32.5621 6.31566C32.4531 6.42541 32.3053 6.48706 32.1511 6.48706H18.5487ZM33.7505 1.17456H16.8505C16.2441 1.17674 15.663 1.41999 15.2338 1.85139C14.8046 2.28278 14.562 2.8674 14.5587 3.47803V13.4722C14.5651 14.0807 14.8084 14.6624 15.2361 15.0923C15.6639 15.5222 16.242 15.7661 16.8464 15.7715H17.5553C17.7089 15.7821 17.8519 15.8537 17.9532 15.9704C18.0544 16.0871 18.1055 16.2394 18.0953 16.394L17.8686 19.6812L22.1925 15.9458C22.2466 15.8913 22.3109 15.8483 22.3817 15.8191C22.4524 15.7898 22.5282 15.7751 22.6047 15.7756H33.734C34.3404 15.7724 34.921 15.528 35.3494 15.0959C35.7779 14.6637 36.0195 14.0786 36.0216 13.468V3.47803C36.0195 2.86778 35.7777 2.28316 35.3492 1.85165C34.9206 1.42014 34.34 1.17675 33.734 1.17456H33.7505Z" fill="#21D0ED"/>
</svg>
